<svg width="25" height="24" viewBox="0 0 25 24" fill="none" xmlns="http://www.w3.org/2000/svg">
<path d="M7.24991 17.5H4.49991C3.77056 17.5 3.07109 17.2103 2.55536 16.6945C2.03964 16.1788 1.74991 15.4793 1.74991 14.75V3.75C1.74991 3.02065 2.03964 2.32118 2.55536 1.80546C3.07109 1.28973 3.77056 1 4.49991 1H15.4999C16.2293 1 16.9287 1.28973 17.4445 1.80546C17.9602 2.32118 18.2499 3.02065 18.2499 3.75V6.5M9.99991 23H20.9999C21.7293 23 22.4287 22.7103 22.9445 22.1945C23.4602 21.6788 23.7499 20.9793 23.7499 20.25V9.25C23.7499 8.52065 23.4602 7.82118 22.9445 7.30546C22.4287 6.78973 21.7293 6.5 20.9999 6.5H9.99991C9.27056 6.5 8.57109 6.78973 8.05537 7.30546C7.53964 7.82118 7.24991 8.52065 7.24991 9.25V20.25C7.24991 20.9793 7.53964 21.6788 8.05537 22.1945C8.57109 22.7103 9.27056 23 9.99991 23Z" stroke="#878787" stroke-width="1.9" stroke-linecap="round" stroke-linejoin="round"/>
</svg>
