<svg width="74" height="30" viewBox="0 0 74 30" fill="none" xmlns="http://www.w3.org/2000/svg">
<g clip-path="url(#clip0_201_1951)">
<path d="M31.7486 20.3098C31.1343 20.662 30.5756 20.9419 30.0619 21.2888C28.8095 22.1313 27.4221 22.1567 26.0306 21.9291C25.6255 21.8621 25.1463 21.4938 24.9331 21.1254C24.4247 20.2428 23.7959 20.3473 23.2266 20.8696C22.0999 21.9036 20.7879 22.1099 19.3568 22.0215C17.5788 21.9116 16.4442 20.0392 17.31 18.4401C18.6723 15.9288 20.1644 13.4845 21.5796 11.0067C23.0863 8.36148 24.6114 5.72431 26.0399 3.0349C26.7707 1.65806 27.4671 0.441929 29.3192 0.772747C30.2698 0.942844 30.4882 1.28973 29.9812 2.15361C27.7636 5.96405 25.5037 9.74904 23.3153 13.5769C22.3356 15.2899 21.4737 17.0739 20.5933 18.8445C20.4848 19.0628 20.5007 19.5718 20.6172 19.6307C20.7572 19.6973 20.909 19.7349 21.0636 19.7413C21.2181 19.7478 21.3725 19.7229 21.5174 19.6682C23.7681 18.6048 25.317 16.7337 26.6396 14.7127C28.0536 12.5563 29.212 10.2299 30.5611 8.02798C31.3885 6.67658 32.7045 7.50697 34.0032 7.30875C33.8536 7.8686 33.8285 8.27175 33.6497 8.58649C31.8121 11.8264 29.9296 15.0421 28.1198 18.2981C27.9066 18.6798 28.0575 19.2678 28.039 19.7593C28.4362 19.6843 28.8784 19.7071 29.2093 19.5196C31.3633 18.3048 32.96 16.4739 34.276 14.4301C35.5151 12.5027 36.5796 10.4589 37.7009 8.45657C37.8426 8.20477 37.8717 7.88869 37.9736 7.51903L36.0434 7.32081C36.1255 6.03236 36.9145 5.67073 37.8902 5.7002C38.9494 5.73234 39.5822 5.3158 39.986 4.31933C40.313 3.51572 40.8042 2.77105 41.2358 2.00896C41.7878 1.03392 43.0376 0.492825 44.1179 0.803553C45.1267 1.09419 44.8169 1.83619 44.5402 2.45363C44.3138 2.95588 43.9048 3.36974 43.64 3.85726C43.3964 4.30728 43.2362 4.80552 43.0151 5.34259L44.6951 6.26674C44.3668 7.33822 43.6585 7.4842 42.8536 7.41724C42.0076 7.34759 41.4833 7.68511 41.0438 8.45256C39.1532 11.7889 37.1766 15.0743 35.2861 18.4106C35.0862 18.7642 35.2504 19.328 35.2451 19.7941C35.6038 19.7499 36.0142 19.8035 36.3135 19.6455C38.6727 18.3905 40.3037 16.3922 41.6859 14.1474C42.6841 12.5255 43.632 10.8674 44.719 9.30839C46.0813 7.35295 48.8946 6.4355 50.7732 7.20026C52.5472 7.92217 53.2714 9.54546 52.4109 11.2665C51.8294 12.4355 51.1048 13.5258 50.2542 14.5118C48.9303 16.044 47.1642 16.7096 45.1227 16.5636C43.8055 16.4685 43.2044 17.011 43.1369 18.29C43.0919 19.1352 44.0398 20.0111 45.1029 19.9589C46.8399 19.8732 48.185 18.8981 49.534 17.8829C52.4307 15.7051 53.7494 12.4157 55.5035 9.43028C56.932 6.99937 58.3102 4.53631 59.7255 2.09736C60.3292 1.05803 61.2215 0.609349 62.4369 0.758016C63.3636 0.871861 63.5357 1.38349 63.1451 2.09736C61.9536 4.25639 60.7144 6.38327 59.4938 8.52622C57.59 11.8746 55.6743 15.2069 53.801 18.5713C53.6448 18.8539 53.801 19.3146 53.8129 19.6923C54.1624 19.6615 54.5794 19.7446 54.8535 19.5825C57.1889 18.2016 58.9576 16.2529 60.3186 13.8983C61.5242 11.8054 62.7409 9.71824 63.9686 7.63689C64.0227 7.55848 64.0927 7.49269 64.174 7.44394C64.2553 7.3952 64.346 7.36463 64.4399 7.35429C65.2634 7.32617 66.0895 7.34089 67.195 7.34089C66.7978 8.2637 66.5622 8.99231 66.1888 9.63922C64.7087 12.2121 63.1518 14.7408 61.7021 17.3311C61.391 17.8869 61.4161 18.6356 61.2851 19.2959C61.8424 19.0709 62.4342 18.9061 62.9519 18.6101C65.4752 17.1677 66.6284 14.6002 68.0052 12.2188C68.6248 11.1473 69.2497 10.0758 69.8587 9.00437C70.8927 7.15205 71.5798 6.87749 73.9972 7.59939L66.5833 20.4571L66.8481 20.7477C67.849 19.9709 68.8843 19.233 69.8428 18.4066C70.6544 17.7048 71.364 16.8837 72.1477 16.1458C72.5515 15.764 72.9116 15.1761 73.6213 15.8042C74.3309 16.4324 73.9112 16.8864 73.5114 17.3297C71.2422 19.845 68.7453 22.0174 65.5136 23.2483C64.8954 23.484 64.3989 24.1992 63.9832 24.7912C63.0776 26.077 62.3601 27.5088 61.3751 28.7209C60.6721 29.5861 59.6196 30.0401 58.4069 29.9879C57.173 29.9343 56.2727 29.3946 55.7273 28.307C55.2096 27.2717 55.8041 26.3958 56.3614 25.6417C57.3266 24.3332 58.6968 23.5898 60.2299 23.0742C61.1169 22.7742 61.9245 22.2291 62.7678 21.7951L62.6209 21.3826C62.3561 21.4147 62.082 21.4388 61.8159 21.4817C60.8257 21.6438 59.8407 21.8688 58.8438 21.9438C58.5485 21.9652 58.0825 21.6424 57.9369 21.3518C57.4642 20.4143 56.8301 20.4986 56.1973 21.0263C55.019 22.0067 53.6514 22.1956 52.252 21.9639C51.6907 21.8688 51.0605 21.3987 50.7269 20.9125C50.2979 20.283 50.1404 19.9107 49.3103 20.4959C47.3496 21.8795 45.0949 22.4152 42.7569 21.9143C41.9321 21.7375 40.9869 21.0786 40.5486 20.3593C39.9105 19.3106 39.5372 19.5825 38.8474 20.1772C37.5103 21.3317 36.0897 22.2063 34.1661 22.071C32.9851 21.9907 32.3933 21.3652 31.7486 20.3098ZM45.1625 14.3926C45.5279 14.5466 45.598 14.6002 45.6709 14.6042C47.5482 14.7167 49.9683 12.3648 49.9153 10.3959C49.8981 9.76109 49.5579 9.30572 48.741 9.6285C46.5658 10.4857 46.2044 12.6099 45.1625 14.3926ZM58.7233 27.2208C59.8327 26.973 60.312 26.2578 60.0644 25.2279C59.3415 25.7181 58.4016 26.0047 58.7233 27.2208Z" fill="#1E1E1E"/>
<path d="M9.54803 7.12673C9.63673 6.00302 9.67247 4.84047 9.83399 3.69533C10.108 1.74524 12.0767 0.0898104 14.0427 0.0362366C15.6499 -0.00796182 17.142 0.0509684 18.4672 1.29924C19.8878 2.63858 19.9116 6.21062 18.6896 7.27138C18.3454 7.57006 17.6186 7.85265 17.3247 7.6839C16.7051 7.32763 16.0551 6.74635 16.4761 5.80881C16.6389 5.44585 16.9037 5.11637 17.0056 4.73734C17.2333 3.85739 16.9262 2.91717 16.1676 2.69484C15.3428 2.45376 14.1645 2.44438 13.492 2.88369C12.0184 3.844 11.8913 5.88784 12.9372 7.3504C13.1451 7.64238 13.4258 7.89686 13.5727 8.21562C13.7197 8.53439 13.9169 9.05137 13.7779 9.22683C13.4934 9.57481 13.0897 9.8015 12.6473 9.86167C11.853 9.91391 11.0586 9.80274 10.2643 9.72774C6.64601 9.3621 4.09749 12.523 3.18929 15.0999C2.30227 17.6245 2.94966 19.6054 4.76739 21.2609C6.89359 23.2016 10.917 23.0207 12.74 20.3086C13.5979 19.0335 14.2095 17.6915 13.5635 16.0508C13.2656 15.2954 13.2351 14.3994 14.2479 14.0163C14.9761 13.7404 15.5189 13.9159 15.9121 14.6954C17.2876 17.4209 16.3622 20.3715 14.2903 22.5975C10.6336 26.5218 2.94039 25.9084 0.653994 20.7372C0.0185166 19.3 -0.117845 17.7652 0.0886853 16.0776C0.444817 13.1471 1.88788 10.9961 4.13853 9.49335C5.77488 8.40313 7.77664 7.87677 9.54803 7.12673Z" fill="#1E1E1E"/>
<path d="M35.5947 1.49607C35.5419 1.19183 35.4128 0.906362 35.2199 0.666933C35.027 0.427504 34.7766 0.24211 34.4927 0.128456C34.2088 0.0148021 33.9008 -0.0233172 33.5982 0.017742C33.2956 0.0588012 33.0084 0.177667 32.7641 0.362985C31.5567 1.37285 32.2346 2.60237 32.5272 3.56268C32.6753 4.09459 32.7702 4.64021 32.8105 5.19132C32.8156 5.237 32.8306 5.281 32.8542 5.32025C32.8779 5.35949 32.9098 5.39303 32.9476 5.41853C32.9854 5.44403 33.0283 5.46088 33.0732 5.46791C33.1181 5.47493 33.164 5.47196 33.2076 5.45919C33.7264 5.27918 34.2655 5.16622 34.8122 5.12301C35.7999 5.03864 37.2032 5.19266 37.6613 3.71403C38.0585 2.59567 37.0894 1.26034 35.6013 1.49607H35.5947Z" fill="#E4BC28"/>
</g>
<defs>
<clipPath id="clip0_201_1951">
<rect width="74" height="30" fill="white"/>
</clipPath>
</defs>
</svg>
