<svg width="30" height="30" viewBox="0 0 30 30" fill="none" xmlns="http://www.w3.org/2000/svg">
<g clip-path="url(#clip0_201_1963)">
<path fill-rule="evenodd" clip-rule="evenodd" d="M15.002 2.5C18.3437 2.5 21.4842 3.79923 23.8431 6.15926C28.719 11.0352 28.719 18.9678 23.8431 23.8437C21.4528 26.2352 18.2344 27.5007 14.9741 27.5007C13.1968 27.5007 11.4079 27.125 9.73411 26.3503C9.24094 26.1526 8.77917 25.9665 8.44767 25.9665C8.06616 25.9688 7.55321 26.1456 7.05771 26.3166C6.04112 26.6655 4.77562 27.1005 3.83929 26.1677C2.90645 25.2337 3.33681 23.9717 3.68343 22.9562C3.85441 22.4561 4.03005 21.9397 4.03005 21.5488C4.03005 21.2278 3.87535 20.8184 3.63806 20.2287C1.45949 15.5237 2.46678 9.85341 6.16209 6.16042C8.52095 3.8004 11.6603 2.5 15.002 2.5ZM15.0032 4.24472C12.1267 4.24472 9.42472 5.36367 7.39503 7.39452C4.21499 10.5722 3.34961 15.4516 5.23972 19.5378C5.51189 20.2112 5.77476 20.8672 5.77476 21.5488C5.77476 22.2293 5.54097 22.9144 5.33509 23.5192C5.16528 24.017 4.90822 24.7684 5.07339 24.9336C5.23506 25.1011 5.99111 24.8371 6.4901 24.6661C7.08912 24.4614 7.7684 24.2264 8.44186 24.2217C9.11648 24.2217 9.75272 24.4776 10.4262 24.7487C14.5519 26.6562 19.4313 25.7885 22.6101 22.6108C26.8044 18.4142 26.8044 11.5877 22.6101 7.39335C20.5793 5.3625 17.8785 4.24472 15.0032 4.24472ZM19.594 14.3207C20.236 14.3207 20.7571 14.8406 20.7571 15.4838C20.7571 16.1271 20.236 16.647 19.594 16.647C18.9519 16.647 18.4262 16.1271 18.4262 15.4838C18.4262 14.8406 18.9415 14.3207 19.5835 14.3207H19.594ZM14.9312 14.3207C15.5732 14.3207 16.0943 14.8406 16.0943 15.4838C16.0943 16.1271 15.5732 16.647 14.9312 16.647C14.2891 16.647 13.7634 16.1271 13.7634 15.4838C13.7634 14.8406 14.2775 14.3207 14.9207 14.3207H14.9312ZM10.2679 14.3207C10.9099 14.3207 11.431 14.8406 11.431 15.4838C11.431 16.1271 10.9099 16.647 10.2679 16.647C9.62582 16.647 9.10008 16.1271 9.10008 15.4838C9.10008 14.8406 9.61536 14.3207 10.2574 14.3207H10.2679Z" fill="#1E1E1E"/>
<circle cx="23.75" cy="6.25" r="6.25" fill="#E4BC28" stroke="white" stroke-width="2"/>
</g>
<defs>
<clipPath id="clip0_201_1963">
<rect width="30" height="30" fill="white"/>
</clipPath>
</defs>
</svg>
