<svg width="24" height="28" viewBox="0 0 24 28" fill="none" xmlns="http://www.w3.org/2000/svg">
<path d="M16.2188 20.9444H23.25L21.2742 18.9931C21.0089 18.7309 20.7984 18.4198 20.6549 18.0773C20.5113 17.7349 20.4374 17.3679 20.4375 16.9972V12.6111C20.4377 10.8874 19.8969 9.20603 18.8895 7.79846C17.8822 6.39088 16.4578 5.32634 14.8125 4.75139V4.27778C14.8125 3.54107 14.5162 2.83453 13.9887 2.31359C13.4613 1.79266 12.7459 1.5 12 1.5C11.2541 1.5 10.5387 1.79266 10.0113 2.31359C9.48382 2.83453 9.1875 3.54107 9.1875 4.27778V4.75139C5.91094 5.89583 3.5625 8.98333 3.5625 12.6111V16.9986C3.5625 17.7458 3.26156 18.4639 2.72578 18.9931L0.75 20.9444H7.78125M16.2188 20.9444V22.3333C16.2188 23.4384 15.7743 24.4982 14.9831 25.2796C14.1919 26.061 13.1189 26.5 12 26.5C10.8811 26.5 9.80806 26.061 9.01689 25.2796C8.22572 24.4982 7.78125 23.4384 7.78125 22.3333V20.9444M16.2188 20.9444H7.78125" stroke="#1E1E1E" stroke-width="1.5" stroke-linecap="round" stroke-linejoin="round"/>
</svg>
