<svg width="16" height="17" viewBox="0 0 16 17" fill="none" xmlns="http://www.w3.org/2000/svg">
<path fill-rule="evenodd" clip-rule="evenodd" d="M11.9331 0.593021C11.9331 0.265673 11.6572 0 11.3179 0C10.978 0 10.7021 0.265673 10.7021 0.593021V1.24851H5.30468V0.593021C5.30468 0.265673 5.02929 0 4.68944 0C4.3496 0 4.07421 0.265673 4.07421 0.593021L4.07372 1.26365C1.54834 1.43348 0 3.02859 0 5.51359V12.6686C0 15.3403 1.73633 17 4.53027 17H11.4697C14.2636 17 16 15.3633 16 12.7287V5.51517C16.0039 4.23187 15.5996 3.16206 14.8305 2.41802C14.1264 1.73798 13.1313 1.34253 11.9336 1.26338L11.9331 0.593021ZM1.23095 7.04034H14.769V12.7287C14.769 14.7181 13.5976 15.814 11.4697 15.814H4.53027C2.40234 15.814 1.23095 14.6975 1.23095 12.6686V7.04034ZM5.30468 2.43455H10.7021V3.19519C10.7021 3.52254 10.978 3.78822 11.3179 3.78822C11.6572 3.78822 11.9331 3.52254 11.9331 3.19519L11.9336 2.45288C12.791 2.52342 13.4848 2.7974 13.9594 3.25616C14.5 3.77802 14.7724 4.53708 14.769 5.51359V5.8543H1.23095V5.51359C1.23095 3.67503 2.23535 2.6013 4.07372 2.4525L4.07421 3.19519C4.07421 3.52254 4.3496 3.78822 4.68944 3.78822C5.02929 3.78822 5.30468 3.52254 5.30468 3.19519V2.43455Z" fill="#E4BC28"/>
</svg>
