<svg width="20" height="20" viewBox="0 0 20 20" fill="none" xmlns="http://www.w3.org/2000/svg">
<path fill-rule="evenodd" clip-rule="evenodd" d="M9.1665 3.33341C5.94484 3.33341 3.33317 5.94509 3.33317 9.16675C3.33317 12.3884 5.94484 15.0001 9.1665 15.0001C12.3882 15.0001 14.9998 12.3884 14.9998 9.16675C14.9998 5.94509 12.3882 3.33341 9.1665 3.33341ZM1.6665 9.16675C1.6665 5.02461 5.02437 1.66675 9.1665 1.66675C13.3086 1.66675 16.6665 5.02461 16.6665 9.16675C16.6665 13.3089 13.3086 16.6667 9.1665 16.6667C5.02437 16.6667 1.6665 13.3089 1.6665 9.16675Z" fill="#878787"/>
<path fill-rule="evenodd" clip-rule="evenodd" d="M13.2856 13.2858C13.611 12.9604 14.1387 12.9604 14.4641 13.2858L18.0891 16.9108C18.4145 17.2363 18.4145 17.7639 18.0891 18.0893C17.7637 18.4148 17.236 18.4148 16.9106 18.0893L13.2856 14.4643C12.9601 14.1389 12.9601 13.6113 13.2856 13.2858Z" fill="#878787"/>
</svg>
